<svg id="Capa_1" data-name="Capa 1" xmlns="http://www.w3.org/2000/svg" viewBox="0 0 75 75"><defs><style>.cls-1{fill:#dcc8b4;}.cls-2{fill:#fff;}</style></defs><title>demo-romantica</title><circle class="cls-1" cx="37.04" cy="37.5" r="35.38"/><path class="cls-2" d="M53.23,36.53H40.82V35H53V28.21h-32V35H33.38v1.54H21a1.5,1.5,0,0,1-1.47-1.46V28A1.4,1.4,0,0,1,21,26.67H53.23A1.3,1.3,0,0,1,54.57,28v7.06A1.39,1.39,0,0,1,53.23,36.53Z"/><path class="cls-2" d="M51.09,55.18H23.24a1.5,1.5,0,0,1-1.47-1.46V36.33A1.39,1.39,0,0,1,23.24,35H33.38v1.54H23.32V53.64H50.88V36.33a.19.19,0,0,0,.17.17V35a1.37,1.37,0,0,1,1.38,1.38V53.72A1.39,1.39,0,0,1,51.09,55.18Z"/><path class="cls-2" d="M41.59,55.18h-9V26.67h9Z"/><path class="cls-2" d="M44.28,28.12H38a2,2,0,0,1-1.56-1.19c-.3-.67-.37-1.79,1-3.28.86-.94,3.9-4,6.79-4a3.61,3.61,0,0,1,3.13,1.83,3.46,3.46,0,0,1,.48,2.86c-.6,2.23-3.31,3.66-3.42,3.72Zm-6.14-1.54h5.75a5.48,5.48,0,0,0,2.49-2.67,2,2,0,0,0-.29-1.62,2.05,2.05,0,0,0-1.83-1.11c-1.8,0-4.16,1.89-5.64,3.51-.57.62-.84,1.18-.76,1.54A.61.61,0,0,0,38.14,26.58Z"/><path class="cls-2" d="M36,28.12H29.81L29.64,28c-.12-.06-2.82-1.49-3.43-3.72a3.47,3.47,0,0,1,.49-2.86,3.6,3.6,0,0,1,3.13-1.83c2.89,0,5.92,3.08,6.78,4,1.37,1.49,1.3,2.61,1,3.28A2,2,0,0,1,36,28.12ZM30.2,26.58H36a.65.65,0,0,0,.28-.35c.08-.36-.19-.92-.76-1.54-1.48-1.62-3.84-3.51-5.64-3.51A2.05,2.05,0,0,0,28,22.29a2,2,0,0,0-.29,1.62A5.48,5.48,0,0,0,30.2,26.58Z"/></svg>