<?xml version="1.0" encoding="utf-8"?>
<!-- Generator: Adobe Illustrator 26.2.1, SVG Export Plug-In . SVG Version: 6.00 Build 0)  -->
<svg version="1.1" id="Capa_1" xmlns="http://www.w3.org/2000/svg" xmlns:xlink="http://www.w3.org/1999/xlink" x="0px" y="0px"
	 viewBox="0 0 75 75" style="enable-background:new 0 0 75 75;" xml:space="preserve">
<style type="text/css">
	.st0{fill:#FFFFFF;}
	.st1{fill:#DCC8B4;}
</style>
<circle class="st0" cx="37" cy="37.5" r="35.4"/>
<path class="st1" d="M45.5,38.9c-0.2,0.3-0.1,0.7,0.3,1l2.4,1.7L39,53.3l5.3-23.6l0.1-0.3l0.9-4l5.3,1.6L45.5,38.9z M37.4,52.9
	l-5.2-23.1l4-1.6c0.1,0,0.1-0.1,0.1-0.1c0.3,0.1,0.7,0.2,1.1,0.2c0.4,0,0.7-0.1,1.1-0.2c0.1,0,0.1,0.1,0.1,0.1l4,1.6L37.4,52.9z
	 M26.7,41.6l2.4-1.7c0.3-0.2,0.4-0.6,0.3-1l-5-12l5.3-1.6l6.3,27.9L26.7,41.6z M32.1,23.2l2.9,1.1c-0.2,0.4-0.3,0.8-0.3,1.3
	c0,0.5,0.1,1,0.3,1.3l-2.9,1.1V23.2z M37.4,24.6c0.6,0,1.1,0.5,1.1,1.1c0,0.6-0.5,1.1-1.1,1.1s-1.1-0.5-1.1-1.1
	C36.3,25.1,36.8,24.6,37.4,24.6 M39.8,24.4l2.9-1.1v4.9L39.8,27c0.2-0.4,0.3-0.8,0.3-1.3C40.2,25.2,40.1,24.8,39.8,24.4 M56.4,26.9
	l-12-3.5v-1.3c0-0.3-0.1-0.5-0.3-0.7c-0.2-0.2-0.5-0.2-0.7-0.1c0,0-4.7,1.8-4.8,1.8C38.2,23,37.8,23,37.4,23c-0.4,0-0.7,0.1-1.1,0.2
	c-0.1,0-4.8-1.8-4.8-1.8c-0.2-0.1-0.6-0.1-0.7,0.1c-0.2,0.2-0.3,0.4-0.3,0.7v1.4l-12,3.5c-0.4,0.1-0.7,0.6-0.6,1s0.6,0.7,1,0.6
	l3.8-1.1L27.6,39l-2.5,1.8c-0.2,0.1-0.3,0.3-0.3,0.6c-0.1,0.2,0.1,0.4,0.2,0.6l11.8,14.9v3.2c0,0.4,0.3,0.8,0.8,0.8
	c0.4,0,0.8-0.3,0.8-0.8v-3.2l11.8-14.9c0.1-0.2,0.2-0.4,0.2-0.6c-0.1-0.2-0.2-0.4-0.3-0.6L47.4,39l4.8-11.6l3.8,1.1
	c0.4,0.1,0.9-0.1,1-0.6C57,27.5,56.7,27,56.4,26.9"/>
</svg>
